<svg width="477" height="128" viewBox="0 0 477 128" fill="none" xmlns="http://www.w3.org/2000/svg">
<path d="M66.3784 79.2904C66.5894 79.3607 66.6271 79.4834 66.4907 79.6624C54.2137 84.0929 22.6127 94.8363 11.7005 89.3793C9.79943 88.4285 8.31633 86.6946 8.24608 84.5301C8.182 82.5625 9.16375 80.8868 10.1316 79.3424C10.3352 79.0138 10.2211 78.9051 9.90021 79.1206C5.98497 82.7347 0.0525674 89.3029 4.1742 93.7459C9.17119 99.1331 24.542 97.7761 32.1507 96.739C52.9793 93.9002 76.5127 86.0485 95.5602 77.1341C106.371 72.0736 123.483 62.7955 130.292 53.3917C132.722 50.0352 133.895 46.0187 130.607 43.3474C127.504 40.8277 122.029 40.1387 117.975 40.1533C119.724 40.7088 121.297 41.1865 122.66 42.2613C126.372 45.1893 124.081 49.7159 121.119 53.0776C118.665 55.8624 115.82 58.1725 112.689 60.4607C108.312 37.0771 86.8805 21.1438 63.4697 23.3057C40.2317 25.4511 22.1444 44.8612 21.954 68.5399C21.9367 70.8124 22.2716 73.1808 23.0121 75.4391C26.3704 85.6892 39.3028 84.8542 48.5785 83.3947C54.6641 82.4385 60.4698 80.9001 66.3753 79.2858L66.3784 79.2904Z" fill="#909090"/>
<path d="M59.2116 97.7659C55.3243 99.9286 52.1475 103.481 54.5682 107.499C55.5783 109.175 57.0318 110.302 58.725 111.419C62.419 113.421 66.6626 114.751 70.8543 114.476C92.7553 113.037 110.414 96.1639 113.115 74.5519C98.3881 83.1443 82.6296 89.7254 66.7212 94.6789C64.0508 95.5103 61.6118 96.4318 59.2136 97.7662L59.2116 97.7659Z" fill="#909090"/>
<path d="M129.638 67.4405C125.688 65.8558 121.493 67.8308 119.989 71.5215C118.436 75.331 120.302 79.6758 124.092 81.2074C127.84 82.7216 132.135 80.9465 133.702 77.2115C135.27 73.4766 133.625 69.0399 129.637 67.4424L129.638 67.4405Z" fill="#909090"/>
<path d="M115.933 17.6537C111.858 16.3939 107.827 18.7901 106.666 22.575C105.457 26.5092 107.711 30.6227 111.554 31.8264C115.397 33.0301 119.572 30.8538 120.805 27.0719C122.083 23.1624 120.036 18.9245 115.933 17.6537Z" fill="#909090"/>
<path d="M35.4963 102.22C33.0244 101.156 30.404 102.35 29.4179 104.632C28.4319 106.915 29.5118 109.636 31.8162 110.654C34.0946 111.662 36.7511 110.654 37.8102 108.443C38.8692 106.232 38.0163 103.305 35.4943 102.22L35.4963 102.22Z" fill="#909090"/>
<path d="M13.2643 64.2221C10.825 63.1216 8.15341 64.2565 7.13008 66.546C6.10674 68.8355 7.11947 71.5968 9.57353 72.66C11.7273 73.5948 14.4144 72.6824 15.504 70.413C16.5676 68.1987 15.7576 65.3444 13.2666 64.2205L13.2643 64.2221Z" fill="#909090"/>
<path d="M114.055 102.689C112.126 101.683 109.95 102.529 109.052 104.261C108.108 106.08 108.814 108.334 110.632 109.278C112.451 110.221 114.541 109.548 115.562 107.808C116.584 106.067 116.037 103.724 114.057 102.691L114.055 102.689Z" fill="#909090"/>
<path d="M66.3783 79.2914L66.4906 79.6634C67.3672 79.3472 68.1851 79.2221 68.9598 78.6416C67.9832 78.7059 67.2609 79.0522 66.378 79.2933L66.3783 79.2914Z" fill="#909090"/>
<path d="M9.89981 79.1231L10.1312 79.345L10.624 78.8431C10.2104 78.6561 10.1065 78.9309 9.89981 79.1231Z" fill="#909090"/>
<path d="M71.8375 77.6813C72.1121 77.7751 72.5321 77.6736 72.751 77.3597C72.4605 77.287 72.1841 77.2468 71.8375 77.6813Z" fill="#909090"/>
<path d="M147.531 68.3271H169.525C173.821 68.3271 177.304 71.81 177.304 76.1063V95.5721C177.304 96.968 176.172 98.0996 174.776 98.0996H155.31C151.014 98.0996 147.531 94.6167 147.531 90.3204V68.3271Z" fill="#515151"/>
<path d="M152.151 72.9473H169.525C173.821 72.9473 177.304 76.4301 177.304 80.7264V95.5724C177.304 96.9683 176.172 98.0998 174.776 98.0998H159.93C155.634 98.0998 152.151 94.617 152.151 90.3207V72.9473Z" fill="#515151"/>
<path d="M156.782 77.5781H169.535C173.831 77.5781 177.314 81.061 177.314 85.3573V96.5762C177.314 97.4237 176.627 98.1108 175.78 98.1108H164.561C160.264 98.1108 156.782 94.628 156.782 90.3317V77.5781Z" fill="#515151"/>
<path d="M187.915 32.0195C217.38 33.5503 234.599 65.7894 219.676 91.332C212.596 103.386 200.255 110.082 186.384 110.561C181.792 110.656 176.052 110.848 171.556 110.561C169.164 110.369 167.346 109.03 166.964 106.639V101.473H181.328V91.0215C183.4 91.0137 185.449 90.9687 187.436 90.8535C201.116 90.0882 209.63 75.5478 204.082 63.1113C200.829 55.8407 194.133 51.9178 186.192 51.5352C174.713 51.0569 162.85 51.9178 151.274 51.5352C149.361 51.248 148.022 49.7177 147.544 47.9004V35.3682C147.544 33.4549 149.075 32.0195 150.892 32.0195H187.915Z" fill="#515151"/>
<path d="M181.362 101.481H177.99C179.797 101.357 181.239 99.9122 181.362 98.1045V101.481Z" fill="#515151"/>
<path d="M438.713 108.948L435.199 105.434C433.735 103.97 433.003 102.177 433.003 100.054V36.8072C433.003 33.8791 434.467 32.415 437.395 32.415H471.983C474.912 32.415 476.376 33.8791 476.376 36.8072V38.015C476.376 40.9431 474.912 42.4071 471.983 42.4071H447.278C444.35 42.4071 442.886 43.8712 442.886 46.7993V61.5129C442.886 64.441 444.35 65.905 447.278 65.905H471.983C474.912 65.905 476.376 67.3691 476.376 70.2972V71.505C476.376 74.4331 474.912 75.8971 471.983 75.8971H447.278C444.35 75.8971 442.886 77.3612 442.886 80.2893V96.8696C442.886 99.7977 444.35 101.262 447.278 101.262H471.983C474.912 101.262 476.376 102.726 476.376 105.654V106.862C476.376 109.79 474.912 111.254 471.983 111.254H444.093C442.044 111.254 440.25 110.485 438.713 108.948Z" fill="#515151"/>
<path d="M389.84 109.278L386.217 105.654C384.753 104.19 384.021 102.397 384.021 100.274V43.7253C384.021 41.6025 384.753 39.809 386.217 38.345L389.84 34.7215C391.304 33.2574 393.098 32.5254 395.221 32.5254H416.303C418.426 32.5254 420.219 33.2574 421.683 34.7215L425.307 38.345C426.771 39.809 427.503 41.6025 427.503 43.7253V58.7684C427.503 61.6965 426.039 63.1605 423.111 63.1605H421.903C418.975 63.1605 417.511 61.6965 417.511 58.7684V46.9096C417.511 43.9815 416.047 42.5175 413.119 42.5175H398.405C395.477 42.5175 394.013 43.9815 394.013 46.9096V97.0897C394.013 100.018 395.477 101.482 398.405 101.482H413.119C416.047 101.482 417.511 100.018 417.511 97.0897V86.329C417.511 83.4009 418.975 81.9369 421.903 81.9369H423.111C426.039 81.9369 427.503 83.4009 427.503 86.329V100.274C427.503 102.397 426.771 104.19 425.307 105.654L421.683 109.278C420.219 110.742 418.426 111.474 416.303 111.474H395.221C393.098 111.474 391.304 110.742 389.84 109.278Z" fill="#515151"/>
<path d="M328.982 107.85C328.982 107.264 329.019 106.862 329.092 106.642L343.037 36.5877C343.622 33.9524 345.196 32.6348 347.758 32.6348H361.594C364.229 32.6348 365.803 33.9524 366.315 36.5877L380.59 106.642C380.663 106.862 380.699 107.301 380.699 107.96C380.699 110.302 379.345 111.474 376.637 111.474H375.319C372.757 111.474 371.183 110.156 370.598 107.521L367.852 94.3442C367.34 91.7089 365.766 90.3913 363.131 90.3913H346.551C343.989 90.3913 342.415 91.7089 341.829 94.3442L339.084 107.521C338.572 110.156 336.998 111.474 334.362 111.474H333.045C330.336 111.474 328.982 110.266 328.982 107.85ZM345.453 76.8855C345.453 79.3012 346.807 80.509 349.515 80.509H360.056C362.765 80.509 364.119 79.3378 364.119 76.9953C364.119 76.3365 364.083 75.8973 364.009 75.6777L357.97 46.5798C357.458 43.9445 356.36 42.6269 354.676 42.6269C353.066 42.6269 351.968 43.9445 351.382 46.5798L345.562 75.6777C345.489 75.8973 345.453 76.2999 345.453 76.8855Z" fill="#515151"/>
<path d="M287.66 111.583C284.732 111.583 283.268 110.119 283.268 107.191V37.1363C283.268 34.2082 284.732 32.7441 287.66 32.7441H315.66C317.783 32.7441 319.576 33.4762 321.04 34.9402L324.554 38.4539C326.018 40.0644 326.75 41.8944 326.75 43.9441V73.3714C326.896 75.421 326.164 77.2511 324.554 78.8615L321.04 82.3752C319.576 83.8393 317.783 84.5713 315.66 84.5713H297.652C294.724 84.5713 293.26 86.0353 293.26 88.9634V107.191C293.26 110.119 291.796 111.583 288.868 111.583H287.66ZM293.37 70.1871C293.37 73.1151 294.834 74.5792 297.762 74.5792H312.475C315.403 74.5792 316.868 73.1151 316.868 70.1871V47.1284C316.868 44.2003 315.403 42.7362 312.475 42.7362H297.762C294.834 42.7362 293.37 44.2003 293.37 47.1284V70.1871Z" fill="#515151"/>
<path d="M236.481 105.654C235.017 104.19 234.285 102.397 234.285 100.274V89.9523C234.285 87.0242 235.749 85.5601 238.677 85.5601H239.885C242.813 85.5601 244.277 87.0242 244.277 89.9523V97.0895C244.277 100.018 245.741 101.482 248.669 101.482H263.383C266.311 101.482 267.775 100.018 267.775 97.0895V81.0582C267.775 78.1301 266.311 76.6661 263.383 76.6661H245.485C243.289 76.6661 241.459 75.9341 239.995 74.47L236.481 70.9563C235.017 69.4923 234.285 67.6988 234.285 65.5759V43.2859C234.212 41.163 234.944 39.333 236.481 37.7957L239.995 34.282C241.459 32.818 243.252 32.0859 245.375 32.0859H266.677C268.727 32.0859 270.52 32.8546 272.057 34.3918L275.571 37.9055C277.035 39.3696 277.767 41.163 277.767 43.2859V53.6074C277.767 56.5355 276.303 57.9995 273.375 57.9995H272.167C269.239 57.9995 267.775 56.5355 267.775 53.6074V46.4702C267.775 43.5421 266.311 42.078 263.383 42.078H248.669C245.741 42.078 244.277 43.5421 244.277 46.4702V62.3916C244.277 65.3197 245.741 66.7838 248.669 66.7838H266.677C268.8 66.7838 270.593 67.5158 272.057 68.9798L275.571 72.4935C277.035 73.9576 277.767 75.7511 277.767 77.8739V100.274C277.914 102.323 277.182 104.153 275.571 105.764L272.057 109.278C270.593 110.742 268.8 111.474 266.677 111.474H245.485C243.362 111.474 241.569 110.742 240.105 109.278L236.481 105.654Z" fill="#515151"/>
</svg>
