<svg width="823" height="228" viewBox="0 0 823 228" fill="none" xmlns="http://www.w3.org/2000/svg">
<path d="M739.867 196.627L732.112 188.873C728.882 185.642 727.266 181.686 727.266 177.001V37.4321C727.266 30.9706 730.497 27.7397 736.958 27.7397H813.285C819.748 27.7397 822.979 30.9706 822.979 37.4321V40.0974C822.979 46.559 819.748 49.7896 813.285 49.7896H758.768C752.306 49.7896 749.076 53.0205 749.076 59.482V91.951C749.076 98.4125 752.306 101.643 758.768 101.643H813.285C819.748 101.643 822.979 104.874 822.979 111.336V114.001C822.979 120.462 819.748 123.693 813.285 123.693H758.768C752.306 123.693 749.076 126.924 749.076 133.385V169.974C749.076 176.435 752.306 179.667 758.768 179.667H813.285C819.748 179.667 822.979 182.897 822.979 189.358V192.024C822.979 198.486 819.748 201.716 813.285 201.716H751.739C747.217 201.716 743.259 200.019 739.867 196.627Z" fill="#B4B4B4"/>
<path d="M632.024 197.356L624.029 189.359C620.799 186.128 619.183 182.171 619.183 177.486V52.6986C619.183 48.0141 620.799 44.0563 624.029 40.8257L632.024 32.8296C635.255 29.5987 639.214 27.9834 643.899 27.9834H690.421C695.106 27.9834 699.062 29.5987 702.293 32.8296L710.29 40.8257C713.521 44.0563 715.136 48.0141 715.136 52.6986V85.8946C715.136 92.3562 711.906 95.5868 705.444 95.5868H702.779C696.317 95.5868 693.087 92.3562 693.087 85.8946V59.7255C693.087 53.2639 689.856 50.0333 683.395 50.0333H650.925C644.464 50.0333 641.233 53.2639 641.233 59.7255V170.459C641.233 176.921 644.464 180.152 650.925 180.152H683.395C689.856 180.152 693.087 176.921 693.087 170.459V146.713C693.087 140.252 696.317 137.021 702.779 137.021H705.444C711.906 137.021 715.136 140.252 715.136 146.713V177.486C715.136 182.171 713.521 186.128 710.29 189.359L702.293 197.356C699.062 200.586 695.106 202.202 690.421 202.202H643.899C639.214 202.202 635.255 200.586 632.024 197.356Z" fill="#B4B4B4"/>
<path d="M497.728 194.206C497.728 192.913 497.81 192.025 497.971 191.54L528.744 36.9491C530.035 31.1337 533.508 28.2261 539.162 28.2261H569.694C575.509 28.2261 578.982 31.1337 580.112 36.9491L611.613 191.54C611.774 192.025 611.854 192.994 611.854 194.448C611.854 199.617 608.866 202.203 602.89 202.203H599.982C594.328 202.203 590.854 199.294 589.564 193.48L583.504 164.402C582.374 158.587 578.901 155.679 573.086 155.679H536.498C530.845 155.679 527.371 158.587 526.078 164.402L520.021 193.48C518.891 199.294 515.417 202.203 509.6 202.203H506.694C500.716 202.203 497.728 199.537 497.728 194.206ZM534.075 125.875C534.075 131.206 537.063 133.872 543.039 133.872H566.3C572.278 133.872 575.266 131.287 575.266 126.118C575.266 124.664 575.187 123.695 575.023 123.21L561.697 58.9989C560.567 53.1835 558.144 50.2759 554.428 50.2759C550.875 50.2759 548.452 53.1835 547.159 58.9989L534.316 123.21C534.155 123.695 534.075 124.583 534.075 125.875Z" fill="#B4B4B4"/>
<path d="M406.535 202.443C400.074 202.443 396.843 199.213 396.843 192.752V38.1597C396.843 31.6982 400.074 28.4673 406.535 28.4673H468.323C473.008 28.4673 476.965 30.0828 480.195 33.3135L487.95 41.0673C491.181 44.6212 492.796 48.6595 492.796 53.1827V118.121C493.118 122.644 491.503 126.682 487.95 130.236L480.195 137.99C476.965 141.221 473.008 142.836 468.323 142.836H428.584C422.123 142.836 418.893 146.067 418.893 152.528V192.752C418.893 199.213 415.662 202.443 409.201 202.443H406.535ZM419.135 111.094C419.135 117.555 422.366 120.786 428.827 120.786H461.295C467.756 120.786 470.989 117.555 470.989 111.094V60.2096C470.989 53.748 467.756 50.5172 461.295 50.5172H428.827C422.366 50.5172 419.135 53.748 419.135 60.2096V111.094Z" fill="#B4B4B4"/>
<path d="M293.6 189.359C290.37 186.128 288.754 182.171 288.754 177.486V154.709C288.754 148.248 291.985 145.017 298.446 145.017H301.112C307.573 145.017 310.804 148.248 310.804 154.709V170.459C310.804 176.922 314.035 180.152 320.496 180.152H352.966C359.427 180.152 362.658 176.922 362.658 170.459V135.082C362.658 128.621 359.427 125.39 352.966 125.39H313.47C308.624 125.39 304.585 123.775 301.355 120.544L293.6 112.79C290.37 109.56 288.754 105.602 288.754 100.917V51.7291C288.593 47.0444 290.209 43.0061 293.6 39.6137L301.355 31.8599C304.585 28.6292 308.542 27.0137 313.227 27.0137H360.235C364.759 27.0137 368.715 28.71 372.107 32.1022L379.861 39.856C383.092 43.0868 384.707 47.0444 384.707 51.7291V74.5058C384.707 80.9673 381.477 84.198 375.015 84.198H372.35C365.888 84.198 362.658 80.9673 362.658 74.5058V58.7559C362.658 52.2944 359.427 49.0635 352.966 49.0635H320.496C314.035 49.0635 310.804 52.2944 310.804 58.7559V93.8902C310.804 100.352 314.035 103.583 320.496 103.583H360.235C364.92 103.583 368.876 105.198 372.107 108.429L379.861 116.182C383.092 119.413 384.707 123.371 384.707 128.055V177.486C385.032 182.008 383.416 186.046 379.861 189.601L372.107 197.356C368.876 200.586 364.92 202.202 360.235 202.202H313.47C308.785 202.202 304.828 200.586 301.597 197.356L293.6 189.359Z" fill="#B4B4B4"/>
<path d="M74.9597 114.743L115.909 112.02C123.907 111.488 130.823 117.542 131.355 125.541L133.765 161.783C133.937 164.381 131.97 166.628 129.371 166.801L93.1287 169.211C85.1303 169.743 78.2144 163.69 77.6825 155.691L74.9597 114.743Z" fill="#B4B4B4"/>
<path d="M84.1311 122.774L116.478 120.623C124.477 120.091 131.393 126.144 131.925 134.143L133.763 161.784C133.935 164.383 131.968 166.63 129.369 166.802L101.728 168.64C93.7298 169.172 86.8139 163.119 86.282 155.12L84.1311 122.774Z" fill="#B4B4B4"/>
<path d="M93.3271 130.822L117.071 129.243C125.069 128.711 131.985 134.764 132.517 142.763L133.906 163.651C134.011 165.229 132.817 166.593 131.24 166.698L110.352 168.087C102.352 168.619 95.4379 162.566 94.906 154.567L93.3271 130.822Z" fill="#B4B4B4"/>
<path d="M145.651 42.1456C200.699 41.3478 236.749 99.2395 212.127 148.643C200.438 171.962 178.29 185.956 152.524 188.565C143.986 189.311 133.323 190.379 124.917 190.401C120.439 190.34 116.889 188.072 115.882 183.668L115.242 174.049L141.985 172.271L140.691 152.812C144.548 152.541 148.357 152.204 152.043 151.743C177.418 148.625 191.469 120.499 179.6 98.0314C172.643 84.8976 159.691 78.4228 144.859 78.6936C123.428 79.2242 101.448 82.2957 79.8477 83.0165C76.2505 82.7186 73.568 80.0353 72.4531 76.7109L70.9016 53.3782C70.6647 49.816 73.3375 46.954 76.7204 46.7291L145.651 42.1456Z" fill="#B4B4B4"/>
<path d="M142.046 172.283L135.768 172.701C139.117 172.246 141.623 169.377 141.628 165.997L142.046 172.283Z" fill="#B4B4B4"/>
<circle cx="138.11" cy="113.636" r="110.371" stroke="#B4B4B4" stroke-width="6.53081"/>
<circle cx="67.645" cy="29.0796" r="13.2041" fill="#B4B4B4"/>
<circle cx="225.487" cy="178.464" r="12.8533" fill="#B4B4B4"/>
<path d="M42.8814 175.107C42.8814 175.107 32.5339 146.796 31.8704 139.828C21.0094 145.842 0.299087 160.174 4.34551 169.389C8.39194 178.605 31.7221 177.041 42.8814 175.107Z" fill="#B4B4B4"/>
<path d="M231.122 50.2412C231.122 50.2412 244.181 77.4082 245.521 84.2786C255.743 77.2342 274.957 60.951 270.032 52.174C265.106 43.3971 242.04 47.2284 231.122 50.2412Z" fill="#B4B4B4"/>
</svg>
